# xmcd
#
# Track frame offsets: 
#        150
#        17880
#        30685
#        48210
#        62198
#        74650
#        89490
#        104100
#        119500
#        130225
#        140208
#        151555
#        167700
#        178528
#        193715
#
# Disc length: 2743 seconds
#
# Revision: 0
# Processed by: cddbd v1.4PL0 Copyright (c) Steve Scherf et al.
# Submitted via: ExactAudioCopy v0.90a11
#
DISCID=de0ab50f
DTITLE=Various Artist - So schön klingt Blasmusik - Folge 3
DYEAR=1900
DGENRE=
TTITLE0=Militärmusik Tirol - JUBELKLÄNGE
TTITLE1=Neue Böhmische Blasmusik - BLASMUSIK ZU JEDER STUND
TTITLE2=Blasorchester Georg Ried - DER ALTE DESSAUER
TTITLE3=Luftwaffenmusikkorps 1 - BAYERISCH BLAU
TTITLE4=Ernst Mosch und seine Orginal Egerländer Musikanten - MUSIKANT
TTITLE4=ENSTOLZ
TTITLE5=Kurt Pascher und seine Böhmerwälder Musikanten - HERZENSGRÜSSE
TTITLE6=Zentralorchester des Innenministeriums der Tschechischen Repub
TTITLE6=lik - PREMIERE MARSCH
TTITLE7=Original Wertach Vagabunden - BÖHMISCHE KIRMES
TTITLE8=Veselka - TUBA MUCKL
TTITLE9=Militärmusik Salzburg - ERZHERZOG ALBRECHT - MARSCH
TTITLE10=Isartaler Blasmusik - SAN MA WIEDA GUAT
TTITLE11=Blaskapelle Alpenland - ZWEI LUSTIGE MUSIKANTEN
TTITLE12=Heeresmusikkorps 4 Regensburg - VON DER TANN-MARSCH
TTITLE13=Blasorchester Wolfgang Grünbauer - NEPOMUK
TTITLE14=Rundfunkblasorchester Leipzig - RADETZKY MARSCH
EXTD=
EXTT0=
EXTT1=
EXTT2=
EXTT3=
EXTT4=
EXTT5=
EXTT6=
EXTT7=
EXTT8=
EXTT9=
EXTT10=
EXTT11=
EXTT12=
EXTT13=
EXTT14=
PLAYORDER=
